<?xml version="1.0" standalone="no"?>
<!DOCTYPE svg PUBLIC "-//W3C//DTD SVG 20010904//EN"
 "http://www.w3.org/TR/2001/REC-SVG-20010904/DTD/svg10.dtd">
<svg version="1.0" xmlns="http://www.w3.org/2000/svg"
 width="136.000000pt" height="145.000000pt" viewBox="0 0 136.000000 145.000000"
 preserveAspectRatio="xMidYMid meet">

<g transform="translate(0.000000,145.000000) scale(0.100000,-0.100000)"
fill="#000000" stroke="none">
<path d="M615 1166 c-42 -18 -93 -79 -101 -121 -7 -38 -2 -100 11 -129 7 -17
6 -18 -11 -11 -29 13 -91 18 -129 11 -40 -8 -99 -55 -121 -97 -34 -66 -7 -181
52 -228 55 -43 122 -48 206 -16 17 7 17 5 3 -21 -36 -69 -3 -187 63 -231 156
-104 355 73 268 239 l-14 26 42 -19 c52 -23 90 -24 141 0 108 49 144 175 80
273 -36 55 -94 81 -164 75 -31 -2 -63 -7 -73 -11 -15 -7 -15 -4 -1 36 40 117
-48 239 -173 238 -27 -1 -63 -7 -79 -14z m171 -31 c64 -42 86 -127 53 -205
-28 -65 -17 -80 35 -49 29 17 48 21 92 17 68 -6 101 -29 133 -91 34 -69 24
-127 -33 -183 -55 -56 -113 -67 -181 -34 -58 28 -79 16 -52 -29 29 -49 31
-101 5 -151 -58 -112 -201 -130 -275 -33 -37 49 -44 128 -14 179 32 54 15 68
-46 38 -58 -30 -87 -30 -143 -2 -61 32 -83 66 -88 135 -3 49 0 64 20 93 53 77
137 101 217 61 51 -27 67 -12 40 38 -37 69 -17 169 41 211 56 40 140 42 196 5z"/>
<path d="M645 1106 c-73 -32 -91 -126 -35 -189 l29 -34 -97 -96 c-80 -78 -102
-95 -120 -90 -27 7 -39 47 -21 69 9 11 22 14 44 10 25 -5 36 -1 54 18 l23 24
-28 18 c-88 58 -207 -31 -174 -130 18 -54 54 -81 110 -81 39 0 54 5 77 28 16
15 31 27 34 27 3 0 46 -41 97 -91 97 -95 112 -127 72 -149 -39 -21 -81 35 -50
66 7 7 1 19 -18 38 l-29 27 -15 -23 c-27 -42 -31 -68 -14 -112 27 -71 108 -98
170 -57 70 46 75 121 13 189 l-21 23 96 96 c83 83 99 95 121 89 54 -13 35 -84
-20 -73 -36 7 -79 -22 -69 -48 7 -18 47 -35 84 -35 88 2 144 116 91 184 -50
63 -114 69 -180 16 l-36 -29 -92 93 c-54 55 -91 102 -91 113 0 27 23 45 52 41
20 -3 23 -9 23 -45 0 -30 6 -49 21 -63 20 -21 20 -21 38 -1 23 25 30 89 14
121 -17 31 -74 70 -102 70 -12 -1 -35 -7 -51 -14z m95 -328 l40 -42 -42 -43
c-23 -24 -45 -43 -49 -43 -4 0 -24 20 -45 45 l-37 46 38 39 c22 22 42 40 47
40 4 0 25 -19 48 -42z"/>
</g>
</svg>
